<svg width="177" height="49" viewBox="0 0 177 49" fill="none" xmlns="http://www.w3.org/2000/svg">
<path d="M15.15 18.905C14.0217 21.4641 11.2498 22.819 7.92418 22.819C4.59857 22.819 1.60156 19.2513 1.60156 15.5932C1.60156 11.935 4.59857 11.2275 7.92418 11.2275C11.2498 11.2275 16.2784 16.3458 15.15 18.905Z" fill="#521A00"/>
<path d="M9.13746 25.9105C8.03388 26.7317 6.53982 26.6411 5.1484 25.8378C3.75698 25.0345 3.38338 22.7857 4.28605 21.2223C5.18871 19.6588 6.61721 20.0804 8.00863 20.8837C9.40005 21.6871 10.241 25.0893 9.13746 25.9105Z" fill="#521A00"/>
<path d="M44.883 15.292C44.883 18.3682 41.2567 23.4211 39.012 23.4211C36.7672 23.4211 34.7969 18.3682 34.7969 15.292C34.7969 12.2159 36.3156 10.0232 38.5603 10.0232C40.8051 10.0232 44.883 10.7759 44.883 15.292Z" fill="#521A00"/>
<path d="M43.9574 24.7164C42.6785 25.9952 39.3872 26.9052 38.6501 26.1681C37.913 25.431 39.3667 22.6834 40.6455 21.4045C41.9244 20.1257 43.3346 19.7128 44.0717 20.4499C44.8088 21.187 45.8349 22.8389 43.9574 24.7164Z" fill="#521A00"/>
<path fill-rule="evenodd" clip-rule="evenodd" d="M38.7862 16.3459H9.12935C9.12935 16.3459 7.8382 20.7239 7.17696 25.9905C7.07883 25.9837 6.97514 25.9802 6.86559 25.9802C4.09251 25.9802 2.20312 28.2044 2.20312 30.948C2.20312 33.6916 4.09251 35.9158 6.86559 35.9158C6.95395 35.9158 7.0385 35.9135 7.11939 35.909C7.45675 37.9296 8.08545 39.7478 9.12935 41.1388C10.7196 43.2576 13.0317 44.2364 15.4156 45.2455C15.5368 45.2968 15.6582 45.3482 15.7797 45.3999C16.4017 45.6641 16.9636 45.9149 17.4874 46.1487C19.9126 47.2312 21.5199 47.9485 24.4874 47.9485C27.2494 47.9485 28.576 47.284 30.4649 46.3378C31.0437 46.048 31.6752 45.7316 32.4169 45.3999C32.5447 45.3427 32.6725 45.2858 32.8001 45.229C35.006 44.2472 37.1793 43.2798 38.7862 41.1388C39.839 39.7359 40.4695 37.8984 40.8048 35.8569C41.0046 35.8957 41.2343 35.9158 41.4978 35.9158C44.2709 35.9158 46.1603 33.6916 46.1603 30.948C46.1603 28.2044 44.2709 25.9802 41.4978 25.9802C41.2081 25.9802 40.9593 26.0045 40.7462 26.0511C40.0872 20.7575 38.7862 16.3459 38.7862 16.3459Z" fill="#FFC7AD"/>
<path d="M29.4889 37.9961C31.2079 39.8713 27.1799 42.8406 24.3317 42.8406C21.4834 42.8406 17.4553 39.8713 19.1744 37.9961C20.8935 36.1208 21.4834 37.8398 24.3317 37.8398C27.1799 37.8398 27.7699 36.1208 29.4889 37.9961Z" fill="#521A00"/>
<circle cx="33.8908" cy="30.1952" r="7.52692" stroke="#1B2124" stroke-width="1.20431"/>
<circle cx="14.3244" cy="30.1952" r="7.52692" stroke="#1B2124" stroke-width="1.20431"/>
<path fill-rule="evenodd" clip-rule="evenodd" d="M27.5268 16.8355C25.512 18.741 22.4353 19.9588 18.9878 19.9588C16.9121 19.9588 14.7772 18.9891 12.8663 17.5268C12.8094 17.6438 12.7477 17.7601 12.6812 17.8753C11.5215 19.884 7.52978 20.4813 5.99374 19.5945C4.45771 18.7076 4.40074 17.7658 5.56047 15.7571C6.14856 14.7385 7.40106 13.7214 8.69321 13.0819C7.2464 10.9643 6.34253 8.73863 6.34253 7.01251C6.34253 2.35667 8.40238 0.990967 14.4716 0.990967C17.8648 0.990967 22.3104 2.82944 25.571 5.2643C26.3273 4.22636 27.6249 3.70044 29.8265 3.70044C34.4823 3.70044 39.4609 11.4719 39.4609 16.0446C39.4609 20.2864 39.322 20.2856 35.5853 20.2633C35.2939 20.2615 34.9805 20.2597 34.6437 20.2597C32.1822 20.2597 29.5043 18.8449 27.5268 16.8355Z" fill="#521A00"/>
<path d="M18.2382 31.5501C18.2382 33.6286 17.2578 28.8404 15.2274 28.8404C13.6478 28.8404 12.3672 33.0265 12.3672 30.948C12.3672 28.8695 13.7983 27.4856 15.378 27.4856C16.9576 27.4856 18.2382 29.4716 18.2382 31.5501Z" fill="#1B2124"/>
<path d="M29.9767 31.5501C29.9767 33.6286 31.4078 28.8404 32.9874 28.8404C34.5671 28.8404 35.8477 33.0265 35.8477 30.948C35.8477 28.8695 34.4165 27.4856 32.8369 27.4856C31.2572 27.4856 29.9767 29.4716 29.9767 31.5501Z" fill="#1B2124"/>
<path d="M21.7734 30.6469C21.7734 30.6469 22.3756 29.4426 24.0315 29.4426C25.6874 29.4426 26.4401 30.6469 26.4401 30.6469" stroke="#1B2124" stroke-width="1.20431"/>
<path fill-rule="evenodd" clip-rule="evenodd" d="M27.7359 41.762C26.688 42.405 25.4239 42.8407 24.3328 42.8407C23.2418 42.8407 21.9776 42.405 20.9297 41.762C21.7299 40.7675 22.957 40.1311 24.3328 40.1311C25.7086 40.1311 26.9358 40.7675 27.7359 41.762Z" fill="#FF5305"/>
<path d="M71.952 20.3495L72.384 20.0375C72.928 19.7175 73.312 19.5575 73.536 19.5575C74.032 19.5575 74.568 20.0055 75.144 20.9015C75.496 21.4615 75.672 21.9095 75.672 22.2455C75.672 22.5815 75.56 22.8615 75.336 23.0855C75.128 23.3095 74.88 23.5095 74.592 23.6855C74.304 23.8615 74.024 24.0295 73.752 24.1895C73.496 24.3495 72.96 24.5575 72.144 24.8135C71.328 25.0695 70.536 25.1975 69.768 25.1975C69.016 25.1975 68.248 25.1015 67.464 24.9095C66.696 24.7015 65.896 24.3655 65.064 23.9015C64.248 23.4215 63.512 22.8455 62.856 22.1735C62.2 21.4855 61.656 20.6135 61.224 19.5575C60.808 18.4855 60.6 17.3255 60.6 16.0775C60.6 14.8295 60.808 13.7015 61.224 12.6935C61.64 11.6695 62.168 10.8295 62.808 10.1735C63.464 9.50152 64.208 8.94152 65.04 8.49352C66.608 7.62952 68.184 7.19752 69.768 7.19752C70.52 7.19752 71.28 7.31752 72.048 7.55752C72.832 7.78152 73.424 8.01352 73.824 8.25352L74.4 8.58952C74.688 8.76552 74.912 8.90952 75.072 9.02152C75.488 9.35752 75.696 9.74152 75.696 10.1735C75.696 10.5895 75.528 11.0295 75.192 11.4935C74.568 12.3575 74.008 12.7895 73.512 12.7895C73.224 12.7895 72.816 12.6135 72.288 12.2615C71.616 11.7175 70.72 11.4455 69.6 11.4455C68.56 11.4455 67.536 11.8055 66.528 12.5255C66.048 12.8775 65.648 13.3735 65.328 14.0135C65.008 14.6535 64.848 15.3815 64.848 16.1975C64.848 16.9975 65.008 17.7175 65.328 18.3575C65.648 18.9975 66.056 19.5015 66.552 19.8695C67.528 20.5735 68.544 20.9255 69.6 20.9255C70.096 20.9255 70.56 20.8615 70.992 20.7335C71.44 20.6055 71.76 20.4775 71.952 20.3495ZM83.3651 24.9095C81.7491 24.9095 80.4051 24.3015 79.3331 23.0855C78.2771 21.8535 77.7491 20.3575 77.7491 18.5975V14.3975C77.7491 14.0135 77.7571 13.7335 77.7731 13.5575C77.8051 13.3815 77.8771 13.1735 77.9891 12.9335C78.2131 12.5015 78.8371 12.2855 79.8611 12.2855C80.9811 12.2855 81.6371 12.5895 81.8291 13.1975C81.9251 13.4535 81.9731 13.8615 81.9731 14.4215V18.6215C81.9731 19.2775 82.1571 19.7895 82.5251 20.1575C82.9091 20.5255 83.4131 20.7095 84.0371 20.7095C84.6771 20.7095 85.1891 20.5175 85.5731 20.1335C85.9731 19.7495 86.1731 19.2455 86.1731 18.6215V14.3735C86.1731 14.0055 86.1811 13.7335 86.1971 13.5575C86.2291 13.3655 86.3091 13.1495 86.4371 12.9095C86.6451 12.4935 87.2611 12.2855 88.2851 12.2855C89.2931 12.2855 89.9091 12.5015 90.1331 12.9335C90.2451 13.1735 90.3091 13.3895 90.3251 13.5815C90.3571 13.7575 90.3731 14.0295 90.3731 14.3975V22.8935C90.3731 23.2455 90.3571 23.5175 90.3251 23.7095C90.3091 23.8855 90.2371 24.0855 90.1091 24.3095C89.8691 24.7255 89.2531 24.9335 88.2611 24.9335C87.2851 24.9335 86.6851 24.7415 86.4611 24.3575C86.3011 24.0855 86.2211 23.7575 86.2211 23.3735C86.1571 23.4855 86.0131 23.6455 85.7891 23.8535C85.5651 24.0615 85.3491 24.2375 85.1411 24.3815C84.5971 24.7335 84.0051 24.9095 83.3651 24.9095ZM101.396 12.4535C101.7 12.5495 101.948 12.7175 102.14 12.9575C102.348 13.1815 102.452 13.5495 102.452 14.0615C102.452 14.5735 102.3 15.1335 101.996 15.7415C101.692 16.3495 101.252 16.6535 100.676 16.6535C100.388 16.6535 100.108 16.5895 99.8358 16.4615C99.5798 16.3335 99.2358 16.2695 98.8038 16.2695C98.3718 16.2695 97.9638 16.4215 97.5798 16.7255C97.2118 17.0295 97.0278 17.3975 97.0278 17.8295V22.8695C97.0278 23.2375 97.0118 23.5175 96.9798 23.7095C96.9638 23.8855 96.8918 24.0935 96.7638 24.3335C96.5238 24.7495 95.8998 24.9575 94.8918 24.9575C94.1238 24.9575 93.5718 24.8215 93.2358 24.5495C92.9798 24.3255 92.8358 23.9815 92.8038 23.5175C92.8038 23.3575 92.8038 23.1255 92.8038 22.8215V14.3975C92.8038 14.0295 92.8118 13.7575 92.8278 13.5815C92.8598 13.3895 92.9318 13.1815 93.0438 12.9575C93.2678 12.5255 93.8918 12.3095 94.9158 12.3095C95.8758 12.3095 96.4758 12.4935 96.7158 12.8615C96.8918 13.1175 96.9798 13.3815 96.9798 13.6535C97.0598 13.5415 97.1718 13.4055 97.3158 13.2455C97.4758 13.0855 97.8038 12.8695 98.2998 12.5975C98.7958 12.3255 99.2278 12.1895 99.5958 12.1895C99.9798 12.1895 100.3 12.2135 100.556 12.2615C100.812 12.2935 101.092 12.3575 101.396 12.4535ZM104.273 14.4215C104.273 14.0535 104.281 13.7815 104.297 13.6055C104.329 13.4135 104.401 13.1975 104.513 12.9575C104.737 12.5415 105.361 12.3335 106.385 12.3335C107.153 12.3335 107.697 12.4695 108.017 12.7415C108.289 12.9655 108.433 13.3095 108.449 13.7735C108.465 13.9335 108.473 14.1655 108.473 14.4695V22.8695C108.473 23.2375 108.457 23.5175 108.425 23.7095C108.409 23.8855 108.337 24.0935 108.209 24.3335C108.001 24.7495 107.385 24.9575 106.361 24.9575C105.353 24.9575 104.737 24.7415 104.513 24.3095C104.401 24.0695 104.329 23.8615 104.297 23.6855C104.281 23.5095 104.273 23.2295 104.273 22.8455V14.4215ZM108.209 9.98152C108.097 10.2055 107.889 10.3655 107.585 10.4615C107.281 10.5575 106.873 10.6055 106.361 10.6055C105.865 10.6055 105.465 10.5575 105.161 10.4615C104.857 10.3655 104.641 10.1975 104.513 9.95752C104.401 9.71752 104.329 9.50952 104.297 9.33352C104.281 9.14152 104.273 8.86152 104.273 8.49352C104.273 8.12552 104.281 7.85352 104.297 7.67752C104.329 7.48552 104.401 7.27752 104.513 7.05352C104.737 6.62152 105.361 6.40552 106.385 6.40552C107.393 6.40552 108.001 6.62152 108.209 7.05352C108.337 7.29352 108.409 7.50952 108.425 7.70152C108.457 7.87752 108.473 8.14952 108.473 8.51752C108.473 8.88552 108.457 9.16552 108.425 9.35752C108.409 9.53352 108.337 9.74152 108.209 9.98152ZM110.53 18.6455C110.53 16.7255 111.202 15.1415 112.546 13.8935C113.89 12.6455 115.426 12.0215 117.154 12.0215C118.882 12.0215 120.41 12.6455 121.738 13.8935C123.066 15.1255 123.73 16.7015 123.73 18.6215C123.73 19.9495 123.386 21.1335 122.698 22.1735C122.01 23.1975 121.17 23.9575 120.178 24.4535C119.202 24.9335 118.186 25.1735 117.13 25.1735C116.074 25.1735 115.05 24.9175 114.058 24.4055C113.066 23.8775 112.226 23.1095 111.538 22.1015C110.866 21.0775 110.53 19.9255 110.53 18.6455ZM115.546 20.3735C116.058 20.7575 116.578 20.9495 117.106 20.9495C117.634 20.9495 118.162 20.7495 118.69 20.3495C119.218 19.9495 119.482 19.3575 119.482 18.5735C119.482 17.7895 119.234 17.2055 118.738 16.8215C118.242 16.4375 117.706 16.2455 117.13 16.2455C116.554 16.2455 116.018 16.4455 115.522 16.8455C115.026 17.2455 114.778 17.8375 114.778 18.6215C114.778 19.3895 115.034 19.9735 115.546 20.3735ZM131.396 24.9095C129.78 24.9095 128.436 24.3015 127.364 23.0855C126.308 21.8535 125.78 20.3575 125.78 18.5975V14.3975C125.78 14.0135 125.788 13.7335 125.804 13.5575C125.836 13.3815 125.908 13.1735 126.02 12.9335C126.244 12.5015 126.868 12.2855 127.892 12.2855C129.012 12.2855 129.668 12.5895 129.86 13.1975C129.956 13.4535 130.004 13.8615 130.004 14.4215V18.6215C130.004 19.2775 130.188 19.7895 130.556 20.1575C130.94 20.5255 131.444 20.7095 132.068 20.7095C132.708 20.7095 133.22 20.5175 133.604 20.1335C134.004 19.7495 134.204 19.2455 134.204 18.6215V14.3735C134.204 14.0055 134.212 13.7335 134.228 13.5575C134.26 13.3655 134.34 13.1495 134.468 12.9095C134.676 12.4935 135.292 12.2855 136.316 12.2855C137.324 12.2855 137.94 12.5015 138.164 12.9335C138.276 13.1735 138.34 13.3895 138.356 13.5815C138.388 13.7575 138.404 14.0295 138.404 14.3975V22.8935C138.404 23.2455 138.388 23.5175 138.356 23.7095C138.34 23.8855 138.268 24.0855 138.14 24.3095C137.9 24.7255 137.284 24.9335 136.292 24.9335C135.316 24.9335 134.716 24.7415 134.492 24.3575C134.332 24.0855 134.252 23.7575 134.252 23.3735C134.188 23.4855 134.044 23.6455 133.82 23.8535C133.596 24.0615 133.38 24.2375 133.172 24.3815C132.628 24.7335 132.036 24.9095 131.396 24.9095ZM140.931 23.8295C140.627 23.6375 140.475 23.3335 140.475 22.9175C140.475 22.5015 140.779 21.8695 141.387 21.0215C141.563 20.7495 141.843 20.6135 142.227 20.6135C142.627 20.6135 143.163 20.8135 143.835 21.2135C144.507 21.5975 145.115 21.7895 145.659 21.7895C146.635 21.7895 147.123 21.5975 147.123 21.2135C147.123 20.9095 146.587 20.6855 145.515 20.5415C144.507 20.3975 143.507 20.0215 142.515 19.4135C142.051 19.1255 141.667 18.6775 141.363 18.0695C141.059 17.4455 140.907 16.7095 140.907 15.8615C140.907 13.3335 142.643 12.0695 146.115 12.0695C147.251 12.0695 148.419 12.3415 149.619 12.8855C150.179 13.1415 150.459 13.4615 150.459 13.8455C150.459 14.2295 150.283 14.7015 149.931 15.2615C149.579 15.8215 149.219 16.1015 148.851 16.1015C148.659 16.1015 148.299 15.9815 147.771 15.7415C147.259 15.5015 146.699 15.3815 146.091 15.3815C145.147 15.3815 144.675 15.5575 144.675 15.9095C144.675 16.3895 145.219 16.7015 146.307 16.8455C147.363 16.9575 148.387 17.2615 149.379 17.7575C149.843 17.9815 150.227 18.3735 150.531 18.9335C150.851 19.4775 151.011 20.1655 151.011 20.9975C151.011 21.8295 150.851 22.5415 150.531 23.1335C150.227 23.7095 149.795 24.1415 149.235 24.4295C148.211 24.9255 146.923 25.1735 145.371 25.1735C143.835 25.1735 142.355 24.7255 140.931 23.8295Z" fill="white"/>
<path d="M162.053 7.36552C162.677 7.36552 163.133 7.42152 163.421 7.53352C163.725 7.62952 163.941 7.79752 164.069 8.03752C164.245 8.40552 164.333 8.90152 164.333 9.52552V18.8135C164.333 20.4935 163.725 21.9815 162.509 23.2775C161.293 24.5575 159.741 25.1975 157.853 25.1975C156.797 25.1975 155.861 24.9655 155.045 24.5015C154.309 24.1015 153.797 23.7415 153.509 23.4215L153.317 23.2295C152.757 22.6375 152.477 22.1335 152.477 21.7175C152.477 21.2855 152.757 20.7815 153.317 20.2055C153.877 19.6295 154.373 19.3415 154.805 19.3415C155.237 19.3415 155.717 19.6055 156.245 20.1335C156.773 20.6615 157.341 20.9255 157.949 20.9255C158.573 20.9255 159.085 20.7175 159.485 20.3015C159.885 19.8855 160.085 19.3335 160.085 18.6455V9.66952C160.085 8.70952 160.245 8.09352 160.565 7.82152C160.933 7.51752 161.429 7.36552 162.053 7.36552ZM175.341 12.4535C175.645 12.5495 175.893 12.7175 176.085 12.9575C176.293 13.1815 176.397 13.5495 176.397 14.0615C176.397 14.5735 176.245 15.1335 175.941 15.7415C175.637 16.3495 175.197 16.6535 174.621 16.6535C174.333 16.6535 174.053 16.5895 173.781 16.4615C173.525 16.3335 173.181 16.2695 172.749 16.2695C172.317 16.2695 171.909 16.4215 171.525 16.7255C171.157 17.0295 170.973 17.3975 170.973 17.8295V22.8695C170.973 23.2375 170.957 23.5175 170.925 23.7095C170.909 23.8855 170.837 24.0935 170.709 24.3335C170.469 24.7495 169.845 24.9575 168.837 24.9575C168.069 24.9575 167.517 24.8215 167.181 24.5495C166.925 24.3255 166.781 23.9815 166.749 23.5175C166.749 23.3575 166.749 23.1255 166.749 22.8215V14.3975C166.749 14.0295 166.757 13.7575 166.773 13.5815C166.805 13.3895 166.877 13.1815 166.989 12.9575C167.213 12.5255 167.837 12.3095 168.861 12.3095C169.821 12.3095 170.421 12.4935 170.661 12.8615C170.837 13.1175 170.925 13.3815 170.925 13.6535C171.005 13.5415 171.117 13.4055 171.261 13.2455C171.421 13.0855 171.749 12.8695 172.245 12.5975C172.741 12.3255 173.173 12.1895 173.541 12.1895C173.925 12.1895 174.245 12.2135 174.501 12.2615C174.757 12.2935 175.037 12.3575 175.341 12.4535Z" fill="#FF5305"/>
<path d="M61.4844 40.0962V39.2954H62.9004C63.1934 39.2954 63.4473 39.2384 63.6621 39.1245C63.8802 39.0073 64.0479 38.8446 64.165 38.6362C64.2855 38.4246 64.3457 38.1789 64.3457 37.8989C64.3457 37.479 64.209 37.1519 63.9355 36.9175C63.6654 36.6799 63.3008 36.561 62.8418 36.561H61.4844V35.7603H62.9004C63.3691 35.7603 63.7777 35.8481 64.126 36.0239C64.4743 36.1965 64.7445 36.4422 64.9365 36.7612C65.1286 37.077 65.2246 37.4497 65.2246 37.8794C65.2246 38.3058 65.1318 38.6867 64.9463 39.022C64.7607 39.354 64.4987 39.616 64.1602 39.8081C63.8216 40.0002 63.4212 40.0962 62.959 40.0962H61.4844ZM60.8398 42.9575V35.7603H61.7188V42.9575H60.8398ZM68.1836 43.0356C67.6986 43.0356 67.2656 42.9217 66.8848 42.6938C66.5072 42.466 66.2093 42.1502 65.9912 41.7466C65.7731 41.3397 65.6641 40.8709 65.6641 40.3403C65.6641 39.8195 65.7731 39.3621 65.9912 38.9683C66.2093 38.5711 66.5072 38.2619 66.8848 38.0405C67.2656 37.8159 67.6986 37.7036 68.1836 37.7036C68.6719 37.7036 69.1048 37.8159 69.4824 38.0405C69.8633 38.2619 70.1611 38.5711 70.376 38.9683C70.5941 39.3621 70.7031 39.8195 70.7031 40.3403C70.7031 40.8709 70.5924 41.3397 70.3711 41.7466C70.153 42.1502 69.8535 42.466 69.4727 42.6938C69.0951 42.9217 68.6654 43.0356 68.1836 43.0356ZM68.1836 42.2544C68.5059 42.2544 68.7923 42.1746 69.043 42.0151C69.2936 41.8556 69.4889 41.6326 69.6289 41.3462C69.7721 41.0597 69.8438 40.7244 69.8438 40.3403C69.8438 39.966 69.7721 39.6405 69.6289 39.3638C69.4889 39.0838 69.2936 38.8674 69.043 38.7144C68.7923 38.5614 68.5059 38.4849 68.1836 38.4849C67.8646 38.4849 67.5798 38.5614 67.3291 38.7144C67.0785 38.8674 66.8815 39.0838 66.7383 39.3638C66.5951 39.6405 66.5234 39.966 66.5234 40.3403C66.5234 40.7244 66.5934 41.0597 66.7334 41.3462C66.8766 41.6326 67.0719 41.8556 67.3193 42.0151C67.57 42.1746 67.8581 42.2544 68.1836 42.2544ZM72.666 42.9575L71.1523 37.7817H72.0312L72.7734 40.5552L73.1055 41.854H73.1445L73.5645 40.7212L74.5117 38.1528H74.9902L75.9277 40.7212L76.3477 41.854H76.3867L76.7285 40.5552L77.4707 37.7817H78.3496L76.8262 42.9575H76.0449L75.5078 41.522L74.7656 39.5981H74.7266L73.9844 41.522L73.4473 42.9575H72.666ZM81.2988 43.0356C80.8138 43.0356 80.3825 42.9266 80.0049 42.7085C79.6305 42.4871 79.3359 42.1763 79.1211 41.7759C78.9062 41.3755 78.7988 40.9035 78.7988 40.3599C78.7988 39.8195 78.903 39.3507 79.1113 38.9536C79.3197 38.5565 79.6029 38.2489 79.9609 38.0308C80.3223 37.8127 80.7292 37.7036 81.1816 37.7036C81.6276 37.7036 82.0215 37.8062 82.3633 38.0112C82.7051 38.2131 82.972 38.493 83.1641 38.8511C83.3594 39.2091 83.457 39.6177 83.457 40.0767C83.457 40.2166 83.4489 40.342 83.4326 40.4526C83.4196 40.5633 83.4082 40.6463 83.3984 40.7017H79.4336V40.0181H82.6367C82.6367 39.7381 82.5781 39.4826 82.4609 39.2515C82.3438 39.0171 82.1761 38.8315 81.958 38.6948C81.7399 38.5549 81.4811 38.4849 81.1816 38.4849C80.8757 38.4849 80.6055 38.563 80.3711 38.7192C80.1367 38.8755 79.9528 39.0952 79.8193 39.3784C79.6859 39.6584 79.6191 39.9855 79.6191 40.3599C79.6191 40.7375 79.6891 41.0695 79.8291 41.356C79.9691 41.6392 80.1676 41.8605 80.4248 42.02C80.682 42.1763 80.9863 42.2544 81.3379 42.2544C81.5462 42.2544 81.735 42.2284 81.9043 42.1763C82.0768 42.1209 82.2282 42.0542 82.3584 41.9761C82.4919 41.8947 82.6042 41.8149 82.6953 41.7368L83.0176 42.4985C82.819 42.645 82.57 42.772 82.2705 42.8794C81.9743 42.9836 81.6504 43.0356 81.2988 43.0356ZM84.5605 42.9575V37.7817H85.4004V38.5728H85.5371L85.2539 38.895C85.3483 38.6802 85.4753 38.4832 85.6348 38.3042C85.7975 38.1219 85.9912 37.9771 86.2158 37.8696C86.4437 37.759 86.7025 37.7036 86.9922 37.7036C87.1061 37.7036 87.2119 37.7118 87.3096 37.728C87.4105 37.741 87.4805 37.7557 87.5195 37.772L87.1777 38.5825C87.1582 38.5728 87.1143 38.5646 87.0459 38.5581C86.9775 38.5483 86.901 38.5435 86.8164 38.5435C86.6667 38.5435 86.5088 38.576 86.3428 38.6411C86.18 38.7062 86.027 38.8006 85.8838 38.9243C85.7406 39.048 85.6234 39.201 85.5322 39.3833C85.4443 39.5623 85.4004 39.7674 85.4004 39.9985V42.9575H84.5605ZM90.0879 43.0356C89.6029 43.0356 89.1715 42.9266 88.7939 42.7085C88.4196 42.4871 88.125 42.1763 87.9102 41.7759C87.6953 41.3755 87.5879 40.9035 87.5879 40.3599C87.5879 39.8195 87.6921 39.3507 87.9004 38.9536C88.1087 38.5565 88.3919 38.2489 88.75 38.0308C89.1113 37.8127 89.5182 37.7036 89.9707 37.7036C90.4167 37.7036 90.8105 37.8062 91.1523 38.0112C91.4941 38.2131 91.7611 38.493 91.9531 38.8511C92.1484 39.2091 92.2461 39.6177 92.2461 40.0767C92.2461 40.2166 92.238 40.342 92.2217 40.4526C92.2087 40.5633 92.1973 40.6463 92.1875 40.7017H88.2227V40.0181H91.4258C91.4258 39.7381 91.3672 39.4826 91.25 39.2515C91.1328 39.0171 90.9652 38.8315 90.7471 38.6948C90.529 38.5549 90.2702 38.4849 89.9707 38.4849C89.6647 38.4849 89.3945 38.563 89.1602 38.7192C88.9258 38.8755 88.7419 39.0952 88.6084 39.3784C88.4749 39.6584 88.4082 39.9855 88.4082 40.3599C88.4082 40.7375 88.4782 41.0695 88.6182 41.356C88.7581 41.6392 88.9567 41.8605 89.2139 42.02C89.471 42.1763 89.7754 42.2544 90.127 42.2544C90.3353 42.2544 90.5241 42.2284 90.6934 42.1763C90.8659 42.1209 91.0173 42.0542 91.1475 41.9761C91.2809 41.8947 91.3932 41.8149 91.4844 41.7368L91.8066 42.4985C91.6081 42.645 91.359 42.772 91.0596 42.8794C90.7633 42.9836 90.4395 43.0356 90.0879 43.0356ZM97.9883 43.0356C97.7897 42.9412 97.6302 42.8436 97.5098 42.7427C97.3893 42.6418 97.3014 42.5311 97.2461 42.4106C97.194 42.2902 97.168 42.1535 97.168 42.0005L97.4023 42.1177H96.9238L97.1875 41.5415V38.9341L96.9434 38.4165H97.0508V35.438H97.8906V41.522C97.8906 41.7368 97.9183 41.8963 97.9736 42.0005C98.029 42.1047 98.1413 42.1958 98.3105 42.2739L97.9883 43.0356ZM95.4004 43.0356C95.0846 43.0356 94.7852 42.9738 94.502 42.8501C94.222 42.7231 93.973 42.5425 93.7549 42.3081C93.54 42.0737 93.3708 41.7922 93.2471 41.4634C93.1234 41.1346 93.0632 40.7668 93.0664 40.3599C93.0632 39.813 93.1689 39.341 93.3838 38.9438C93.5986 38.5435 93.8835 38.2358 94.2383 38.021C94.5931 37.8029 94.9805 37.6938 95.4004 37.6938C95.8333 37.6938 96.2174 37.8062 96.5527 38.0308C96.8913 38.2554 97.1566 38.5679 97.3486 38.9683C97.5439 39.3687 97.6432 39.8325 97.6465 40.3599C97.6432 40.8774 97.5439 41.3381 97.3486 41.7417C97.1566 42.1453 96.8913 42.4627 96.5527 42.6938C96.2174 42.9217 95.8333 43.0356 95.4004 43.0356ZM95.5469 42.2739C95.8529 42.2739 96.1247 42.1909 96.3623 42.0249C96.6032 41.8556 96.792 41.6278 96.9287 41.3413C97.0687 41.0516 97.1387 40.7244 97.1387 40.3599C97.1387 39.966 97.0654 39.6274 96.9189 39.3442C96.7757 39.0578 96.5837 38.8381 96.3428 38.6851C96.1019 38.5321 95.8366 38.4556 95.5469 38.4556C95.2311 38.4556 94.9495 38.5369 94.7021 38.6997C94.458 38.8592 94.266 39.0822 94.126 39.3687C93.9893 39.6551 93.9225 39.9855 93.9258 40.3599C93.9225 40.7244 93.9893 41.0516 94.126 41.3413C94.266 41.6278 94.458 41.8556 94.7021 42.0249C94.9495 42.1909 95.2311 42.2739 95.5469 42.2739ZM101.836 42.9575V35.438H102.676V38.436H102.754L102.549 38.9731V41.7563L102.832 42.2544H102.676V42.9575H101.836ZM104.336 43.0356C103.903 43.0356 103.517 42.9217 103.179 42.6938C102.843 42.4627 102.578 42.1453 102.383 41.7417C102.191 41.3381 102.093 40.8774 102.09 40.3599C102.093 39.8325 102.191 39.3687 102.383 38.9683C102.578 38.5679 102.843 38.2554 103.179 38.0308C103.517 37.8062 103.903 37.6938 104.336 37.6938C104.756 37.6938 105.143 37.8029 105.498 38.021C105.853 38.2358 106.138 38.5435 106.353 38.9438C106.567 39.341 106.673 39.813 106.67 40.3599C106.673 40.7668 106.613 41.1346 106.489 41.4634C106.366 41.7922 106.195 42.0737 105.977 42.3081C105.762 42.5425 105.513 42.7231 105.229 42.8501C104.95 42.9738 104.652 43.0356 104.336 43.0356ZM104.189 42.2739C104.505 42.2739 104.785 42.1909 105.029 42.0249C105.277 41.8556 105.469 41.6278 105.605 41.3413C105.745 41.0516 105.814 40.7244 105.811 40.3599C105.814 39.9855 105.745 39.6551 105.605 39.3687C105.469 39.0822 105.277 38.8592 105.029 38.6997C104.785 38.5369 104.505 38.4556 104.189 38.4556C103.9 38.4556 103.634 38.5321 103.394 38.6851C103.153 38.8381 102.959 39.0578 102.812 39.3442C102.669 39.6274 102.598 39.966 102.598 40.3599C102.598 40.7244 102.666 41.0516 102.803 41.3413C102.943 41.6278 103.132 41.8556 103.369 42.0249C103.61 42.1909 103.883 42.2739 104.189 42.2739ZM108.174 45.0864C107.975 45.0864 107.79 45.0636 107.617 45.0181C107.445 44.9725 107.324 44.9302 107.256 44.8911L107.578 44.1294C107.682 44.1815 107.79 44.2238 107.9 44.2563C108.011 44.2889 108.112 44.3052 108.203 44.3052C108.402 44.3084 108.564 44.2596 108.691 44.1587C108.822 44.061 108.923 43.9455 108.994 43.812C109.066 43.6818 109.118 43.5695 109.15 43.4751L109.414 42.6938L109.434 43.2017L107.178 37.7817H108.096L109.316 40.936L109.717 42.0005H109.756L110.117 40.936L111.23 37.7817H112.119L109.893 43.6802C109.85 43.7974 109.788 43.9341 109.707 44.0903C109.629 44.2498 109.525 44.4045 109.395 44.5542C109.264 44.7072 109.1 44.8341 108.901 44.9351C108.703 45.036 108.46 45.0864 108.174 45.0864Z" fill="#A1A3A4"/>
<path d="M127.001 44.9195C125.384 44.928 123.827 44.3014 122.664 43.1734C122.154 42.68 121.736 42.099 121.43 41.4577H121.858C122.137 41.9942 122.501 42.4817 122.935 42.9013C124.026 43.9569 125.485 44.543 127 44.5349C128.516 44.543 129.975 43.9569 131.066 42.9013C131.501 42.4818 131.865 41.9942 132.144 41.4577H132.572C132.266 42.099 131.848 42.68 131.338 43.1734C130.175 44.3013 128.618 44.9279 127.001 44.9195ZM121.858 36.4576H121.43C121.736 35.8162 122.154 35.235 122.664 34.7415C123.827 33.6137 125.384 32.987 127.001 32.9954C128.618 32.9869 130.175 33.6136 131.338 34.7415C131.848 35.2347 132.266 35.8156 132.573 36.4566H132.144C131.865 35.9201 131.502 35.4326 131.067 35.013C129.976 33.9575 128.517 33.3713 127.001 33.3794C125.485 33.3713 124.026 33.9577 122.935 35.0138C122.5 35.4334 122.136 35.9209 121.857 36.4574L121.858 36.4576Z" fill="white"/>
<path d="M127 44.1468C126.284 44.1486 125.574 44.01 124.91 43.7388C124.276 43.4805 123.697 43.1027 123.205 42.6259C122.717 42.1567 122.326 41.5958 122.054 40.9752C121.738 40.2501 121.596 39.4603 121.641 38.6699C121.685 37.8796 121.915 37.1108 122.311 36.426C122.748 35.6732 123.363 35.0399 124.102 34.582V34.6311C124.217 34.648 124.324 34.6682 124.423 34.6907C124.516 34.7108 124.601 34.7585 124.667 34.8276C124.697 34.863 124.718 34.9057 124.727 34.9516C124.743 35.0143 124.753 35.0782 124.759 35.1426C124.765 35.2122 124.769 35.2871 124.772 35.3652C124.774 35.4433 124.775 35.5214 124.775 35.5973V37.2071C124.775 37.3337 124.774 37.4591 124.772 37.5795L124.771 37.6345C124.769 37.7339 124.767 37.8277 124.765 37.9128C124.763 38.0139 124.762 38.0952 124.762 38.1546C124.762 38.2208 124.76 38.2913 124.756 38.3645C124.751 38.4376 124.746 38.5048 124.74 38.5682C124.734 38.626 124.725 38.6833 124.711 38.7397C124.703 38.7812 124.686 38.8203 124.661 38.8544C124.6 38.9256 124.521 38.9785 124.432 39.007C124.333 39.0414 124.231 39.0669 124.128 39.0833V39.1469H125.499C125.528 39.1535 125.556 39.163 125.583 39.1753C125.636 39.199 125.684 39.2297 125.729 39.2663C125.765 39.2967 125.797 39.3326 125.823 39.3729C125.847 39.4126 125.862 39.4414 125.874 39.4639C125.9 39.5165 125.922 39.5632 125.94 39.603C125.959 39.6427 125.979 39.6914 125.998 39.7421C126.017 39.7928 126.038 39.8484 126.059 39.9011C126.079 39.9538 126.102 40.0138 126.134 40.1016C126.231 40.3568 126.328 40.6129 126.425 40.8699L126.45 40.9363C126.539 41.1742 126.631 41.418 126.724 41.6674C126.796 41.8581 126.869 42.0542 126.945 42.2557L127.044 42.5208C127.167 42.8475 127.282 43.1534 127.398 43.456H127.471L127.737 42.861C127.8 42.6877 127.867 42.4995 127.949 42.2688C128.015 42.0826 128.086 41.8789 128.167 41.6464C128.236 41.446 128.309 41.2364 128.385 41.0237C128.463 40.8051 128.53 40.6134 128.59 40.4379C128.677 40.6706 128.761 40.9025 128.839 41.1269C128.916 41.3513 128.997 41.584 129.09 41.8467C129.176 42.0921 129.268 42.3517 129.362 42.618C129.454 42.8783 129.557 43.1603 129.668 43.456H129.675C128.856 43.9101 127.935 44.1478 127 44.1468ZM129.746 43.4157L129.983 42.8738C130.06 42.642 130.143 42.3958 130.231 42.1418C130.318 41.8878 130.408 41.6277 130.494 41.3735C130.579 41.1249 130.665 40.8745 130.752 40.6296C130.838 40.3848 130.912 40.1648 130.976 39.9706C131.015 39.854 131.055 39.755 131.091 39.6761C131.121 39.6091 131.155 39.5441 131.194 39.4816C131.219 39.4399 131.247 39.4001 131.278 39.3623C131.305 39.3307 131.322 39.3126 131.333 39.3015C131.37 39.266 131.412 39.2354 131.457 39.2105C131.535 39.1633 131.623 39.1342 131.714 39.1254V39.0648H130.383V39.1254C130.438 39.1305 130.492 39.1397 130.546 39.1529C130.605 39.1663 130.662 39.1867 130.715 39.2135C130.765 39.2378 130.81 39.2707 130.849 39.3107C130.886 39.3511 130.905 39.4046 130.903 39.4595C130.903 39.5006 130.899 39.5638 130.891 39.6477C130.871 39.786 130.838 39.9222 130.794 40.0547C130.75 40.2012 130.7 40.3596 130.646 40.5255L130.58 40.7284L130.483 41.0295C130.432 41.1849 130.379 41.3475 130.319 41.5245C130.263 41.6915 130.214 41.8354 130.168 41.9647C130.123 42.0941 130.084 42.2066 130.053 42.2988C130.022 42.391 130.002 42.4499 129.99 42.4777C129.963 42.4068 129.923 42.2958 129.868 42.1446L129.853 42.1048C129.787 41.9206 129.716 41.7245 129.644 41.522C129.569 41.3091 129.488 41.0812 129.402 40.8447C129.317 40.6082 129.241 40.3916 129.173 40.1918C129.105 39.9957 129.048 39.824 129.003 39.6817C128.974 39.6018 128.951 39.5195 128.936 39.4357C128.936 39.4062 128.943 39.3771 128.956 39.3508C128.969 39.3244 128.988 39.3016 129.012 39.284C129.063 39.2433 129.12 39.2115 129.181 39.19C129.242 39.1681 129.305 39.1529 129.369 39.1445C129.437 39.1356 129.477 39.1298 129.499 39.1262V39.0656H127.605V39.1322C127.689 39.1344 127.772 39.1477 127.853 39.1719C127.914 39.1909 127.973 39.2196 128.025 39.257C128.067 39.2867 128.103 39.3226 128.134 39.3635C128.158 39.3961 128.179 39.4306 128.198 39.4667C128.253 39.5823 128.306 39.7037 128.356 39.828C128.404 39.949 128.457 40.0891 128.519 40.2562C128.431 40.5345 128.341 40.8049 128.253 41.0611C128.166 41.3141 128.084 41.5472 128.011 41.7535C127.938 41.9598 127.878 42.1281 127.829 42.2636C127.785 42.3872 127.752 42.4791 127.739 42.5158C127.694 42.3946 127.637 42.2426 127.563 42.0512C127.487 41.8525 127.403 41.6339 127.33 41.4439C127.248 41.2282 127.165 41.0066 127.082 40.7849C126.989 40.5345 126.917 40.3385 126.855 40.1688C126.788 39.984 126.732 39.8226 126.689 39.689C126.658 39.6077 126.637 39.5232 126.625 39.437C126.622 39.377 126.643 39.3181 126.683 39.2733C126.721 39.233 126.767 39.2018 126.819 39.1819C126.867 39.1628 126.918 39.1486 126.97 39.1393C127.004 39.1329 127.038 39.1288 127.073 39.1272V39.0666H125.974C125.896 39.0541 125.82 39.0286 125.751 38.9913C125.673 38.9529 125.605 38.8961 125.554 38.8257C125.509 38.7531 125.485 38.6694 125.484 38.5839C125.48 38.4863 125.476 38.3687 125.472 38.2339C125.472 38.1622 125.471 38.0948 125.469 38.0336C125.467 37.9724 125.465 37.908 125.465 37.8331V37.2337H125.808C125.939 37.2337 126.075 37.2283 126.21 37.2176C126.346 37.2069 126.485 37.1912 126.619 37.1701C126.749 37.1502 126.876 37.1182 127 37.0745C127.117 37.0303 127.23 36.9739 127.336 36.906C127.445 36.8373 127.542 36.7526 127.625 36.6546C127.709 36.5536 127.777 36.4395 127.824 36.3167C127.877 36.1807 127.902 36.036 127.901 35.8902C127.906 35.6563 127.842 35.426 127.717 35.2287C127.6 35.0483 127.441 34.8996 127.254 34.796C127.066 34.6909 126.859 34.623 126.645 34.5959C126.399 34.5665 126.151 34.5526 125.903 34.5544H125.618C125.517 34.5544 125.402 34.5554 125.266 34.5575C125.147 34.5597 125.019 34.5607 124.889 34.5607C124.763 34.5607 124.645 34.5617 124.538 34.5637C124.434 34.5659 124.339 34.5669 124.256 34.5669H124.127C124.866 34.1176 125.7 33.8477 126.561 33.7786C127.423 33.7096 128.288 33.8435 129.089 34.1694C129.723 34.4278 130.302 34.8055 130.795 35.2823C131.282 35.7516 131.673 36.3124 131.945 36.933C132.267 37.6715 132.408 38.4768 132.356 39.2813C132.304 40.0858 132.06 40.866 131.645 41.5563C131.18 42.3272 130.527 42.967 129.748 43.4155L129.746 43.4157ZM125.466 37.1447V36.3298C125.466 36.1196 125.467 35.9097 125.469 35.7064C125.471 35.4995 125.474 35.3175 125.478 35.1655C125.482 35.0701 125.487 34.9942 125.491 34.9397C125.495 34.8853 125.499 34.8449 125.504 34.8155C125.507 34.7908 125.512 34.7664 125.52 34.7426C125.526 34.7206 125.531 34.6981 125.534 34.6754C125.564 34.6711 125.603 34.6658 125.652 34.6595C125.72 34.652 125.789 34.6488 125.858 34.65C125.977 34.6497 126.096 34.6582 126.214 34.6754C126.379 34.6987 126.538 34.758 126.679 34.8492C126.82 34.9404 126.939 35.0613 127.028 35.2034C127.154 35.3987 127.219 35.6269 127.215 35.8592C127.218 36.1163 127.143 36.368 127 36.5812C126.85 36.8001 126.631 36.9624 126.379 37.0427C126.241 37.0904 126.098 37.1193 125.954 37.1286C125.803 37.1397 125.639 37.1447 125.466 37.1447Z" fill="white"/>
<path d="M138.812 40.4722V39.2271H140.022C140.267 39.2271 140.478 39.1799 140.657 39.0854C140.84 38.9878 140.979 38.8543 141.077 38.6851C141.178 38.5158 141.229 38.3221 141.229 38.104C141.229 37.7655 141.115 37.5002 140.887 37.3081C140.659 37.1128 140.351 37.0151 139.964 37.0151H138.812V35.7603H140.052C140.579 35.7603 141.033 35.8547 141.414 36.0435C141.798 36.2323 142.093 36.4992 142.298 36.8442C142.503 37.1893 142.605 37.5946 142.605 38.0601C142.605 38.5353 142.501 38.9552 142.293 39.3198C142.085 39.6812 141.792 39.9644 141.414 40.1694C141.04 40.3713 140.6 40.4722 140.096 40.4722H138.812ZM137.708 42.9575V35.7603H139.104V42.9575H137.708ZM145.047 42.9575L142.933 35.7603H144.388L145.33 39.2271L145.77 41.0142H145.813L147.439 36.5415H148.006L149.632 41.0142H149.671L150.11 39.2271L151.067 35.7603H152.508L150.408 42.9575H149.231L147.742 39.2466H147.703L146.204 42.9575H145.047Z" fill="white"/>
</svg>
